HIERARCHY
ROOT Hips
{
	OFFSET 0.000000 0.000000 0.000000
	CHANNELS 6 Xposition Yposition Zposition Xrotation Yrotation Zrotation
	JOINT LeftUpLeg_virtual
	{
		OFFSET 0.000000 0.000000 0.000000
		CHANNELS 3 Xrotation Yrotation Zrotation
		JOINT LeftUpLeg
		{
			OFFSET 10.205400 -3.823500 0.155100
			CHANNELS 3 Xrotation Yrotation Zrotation
			JOINT LeftLeg
			{
				OFFSET 0.708757 -12.982077 0.567790
				CHANNELS 3 Xrotation Yrotation Zrotation
				JOINT LeftFoot
				{
					OFFSET -0.708756 -10.717838 -2.184338
					CHANNELS 3 Xrotation Yrotation Zrotation
					JOINT LeftToeBase
					{
						OFFSET 0.108149 -7.191104 7.560241
						CHANNELS 3 Xrotation Yrotation Zrotation
						JOINT LeftToe_End
						{
							OFFSET 0.070230 0.081724 4.490308
							CHANNELS 3 Xrotation Yrotation Zrotation
							End Site
							{
								OFFSET 0 0 0
							}
						}
					}
				}
			}
		}
	}
	JOINT RightUpLeg_virtual
	{
		OFFSET 0.000000 0.000000 0.000000
		CHANNELS 3 Xrotation Yrotation Zrotation
		JOINT RightUpLeg
		{
			OFFSET -10.205400 -3.823500 0.005500
			CHANNELS 3 Xrotation Yrotation Zrotation
			JOINT RightLeg
			{
				OFFSET -0.708756 -12.982134 0.610632
				CHANNELS 3 Xrotation Yrotation Zrotation
				JOINT RightFoot
				{
					OFFSET 0.708754 -10.717769 -1.945823
					CHANNELS 3 Xrotation Yrotation Zrotation
					JOINT RightToeBase
					{
						OFFSET -0.108140 -7.191069 7.372968
						CHANNELS 3 Xrotation Yrotation Zrotation
						JOINT RightToe_End
						{
							OFFSET -0.070227 0.081735 4.479403
							CHANNELS 3 Xrotation Yrotation Zrotation
							End Site
							{
								OFFSET 0 0 0
							}
						}
					}
				}
			}
		}
	}
	JOINT Spine_virtual
	{
		OFFSET 0.000000 0.000000 0.000000
		CHANNELS 3 Xrotation Yrotation Zrotation
		JOINT Spine
		{
			OFFSET 0.000000 6.876099 0.125700
			CHANNELS 3 Xrotation Yrotation Zrotation
			JOINT Spine1
			{
				OFFSET 0.000000 5.730043 0.104720
				CHANNELS 3 Xrotation Yrotation Zrotation
				JOINT Spine1_split
				{
					OFFSET 0.000000 5.730043 0.104720
					CHANNELS 3 Xrotation Yrotation Zrotation
					JOINT Spine2
					{
						OFFSET 0.000000 5.730043 0.104720
						CHANNELS 3 Xrotation Yrotation Zrotation
						JOINT Neck_virtual
						{
							OFFSET 0.000000 0.000000 0.000000
							CHANNELS 3 Xrotation Yrotation Zrotation
							JOINT Neck
							{
								OFFSET 0.000000 10.314075 0.188496
								CHANNELS 3 Xrotation Yrotation Zrotation
								JOINT Head
								{
									OFFSET 0.000000 7.643700 -2.377400
									CHANNELS 3 Xrotation Yrotation Zrotation
									JOINT HeadTop_End
									{
										OFFSET 0.000000 43.788605 -13.619600
										CHANNELS 3 Xrotation Yrotation Zrotation
										End Site
										{
											OFFSET 0 0 0
										}
									}
								}
							}
						}
						JOINT LeftShoulder_virtual
						{
							OFFSET 0.000000 0.000000 0.000000
							CHANNELS 3 Xrotation Yrotation Zrotation
							JOINT LeftShoulder
							{
								OFFSET 2.196100 4.412489 0.087492
								CHANNELS 3 Xrotation Yrotation Zrotation
								JOINT LeftShoulder_split
								{
									OFFSET 2.196100 4.412489 0.087492
									CHANNELS 3 Xrotation Yrotation Zrotation
									JOINT LeftArm
									{
										OFFSET 8.771219 -2.981674 -0.026999
										CHANNELS 3 Xrotation Yrotation Zrotation
										JOINT LeftForeArm
										{
											OFFSET 8.512804 0.000000 -0.000000
											CHANNELS 3 Xrotation Yrotation Zrotation
											JOINT LeftHand
											{
												OFFSET 18.484802 0.000000 -0.000000
												CHANNELS 3 Xrotation Yrotation Zrotation
												End Site
												{
													OFFSET 0 0 0
												}
											}
										}
									}
								}
							}
						}
						JOINT RightShoulder_virtual
						{
							OFFSET 0.000000 0.000000 0.000000
							CHANNELS 3 Xrotation Yrotation Zrotation
							JOINT RightShoulder
							{
								OFFSET -2.196100 4.412496 0.070690
								CHANNELS 3 Xrotation Yrotation Zrotation
								JOINT RightShoulder_split
								{
									OFFSET -2.196100 4.412496 0.070690
									CHANNELS 3 Xrotation Yrotation Zrotation
									JOINT RightArm
									{
										OFFSET -8.771282 -2.981682 -0.094208
										CHANNELS 3 Xrotation Yrotation Zrotation
										JOINT RightForeArm
										{
											OFFSET -8.494598 0.000000 0.000000
											CHANNELS 3 Xrotation Yrotation Zrotation
											JOINT RightHand
											{
												OFFSET -18.483803 0.000000 0.000001
												CHANNELS 3 Xrotation Yrotation Zrotation
												End Site
												{
													OFFSET 0 0 0
												}
											}
										}
									}
								}
							}
						}
					}
				}
			}
		}
	}
}
MOTION
Frames: 9
Frame Time: 0.03333333
1.254212 28.679018 -0.743645 0.000000 0.000000 0.000000 21.997801 -3.268054 -26.652730 -93.981764 -19.533931 20.047341 87.319857 -7.250079 11.886734 -17.351315 -0.887466 -8.540397 -0.000162 0.000003 -0.000004 0.000000 0.000000 0.000000 21.997801 -3.268054 -26.652730 -12.505841 -25.555349 18.454454 17.866368 -11.099612 -1.363923 -12.244330 -9.812446 14.358629 -0.054739 -0.000013 0.000004 0.000000 0.000000 0.000000 21.997801 -3.268054 -26.652730 9.541101 0.770500 -17.856556 6.314211 2.817450 -10.831241 0.000000 0.000000 0.000000 0.000000 0.000000 0.000000 6.113160 2.767240 -10.953749 -2.791378 4.502985 -4.250970 -9.691551 18.412201 -4.967175 0.000000 0.000000 0.000000 6.113160 2.767240 -10.953749 0.811408 -2.476650 15.977511 0.000000 0.000000 0.000000 -57.177761 -43.418228 -99.391711 0.000022 -55.425059 0.000008 0.000000 0.000000 0.000000 6.113160 2.767240 -10.953749 -0.221537 -5.715125 2.796547 0.000000 0.000000 0.000000 16.079312 61.091766 -2.286527 0.000012 72.079615 0.000038 0.000000 0.000000 0.000000 
1.276377 28.777922 -0.747116 0.000000 0.000000 0.000000 21.692240 -3.687751 -25.884954 -92.983880 -18.060921 20.885653 87.008707 -7.215286 11.915081 -17.866699 -0.992695 -8.076620 -0.000051 0.000006 0.000006 0.000000 0.000000 0.000000 21.692240 -3.687751 -25.884954 -13.228622 -25.405911 17.466614 18.496384 -10.997917 -1.188529 -12.326717 -9.529033 14.184822 -0.050677 -0.000009 -0.000002 0.000000 0.000000 0.000000 21.692240 -3.687751 -25.884954 9.710083 0.701540 -17.668922 6.445039 2.740808 -10.688248 0.000000 0.000000 0.000000 0.000000 0.000000 0.000000 6.249408 2.693590 -10.811398 -0.796413 4.356715 -3.690197 -8.154881 18.426618 -3.530661 0.000000 0.000000 0.000000 6.249408 2.693590 -10.811398 0.763379 -2.243206 16.026802 0.000000 0.000000 0.000000 -56.139620 -44.766651 -98.210020 -0.000006 -55.603897 0.000013 0.000000 0.000000 0.000000 6.249408 2.693590 -10.811398 -0.201843 -4.974899 1.334820 0.000000 0.000000 0.000000 14.246706 61.619822 1.246856 -0.000030 71.160176 0.000005 0.000000 0.000000 0.000000 
1.272276 28.872505 -0.739752 0.000000 0.000000 0.000000 21.236052 -4.294893 -25.169368 -91.702851 -16.910268 21.931884 86.887560 -7.311998 11.933060 -18.625234 -0.764960 -7.813261 -0.000152 0.000004 0.000000 0.000000 0.000000 0.000000 21.236052 -4.294893 -25.169368 -13.813822 -24.976451 16.690040 18.954639 -10.962717 -1.041776 -12.307402 -9.218192 13.945293 -0.048205 0.000007 -0.000002 0.000000 0.000000 0.000000 21.236052 -4.294893 -25.169368 9.817646 0.655388 -17.509759 6.534456 2.691604 -10.541828 0.000000 0.000000 0.000000 0.000000 0.000000 0.000000 6.345209 2.646780 -10.664560 1.163593 4.299128 -3.121154 -6.113496 18.694860 -2.004239 0.000000 0.000000 0.000000 6.345209 2.646780 -10.664560 0.658055 -1.924523 15.859838 0.000000 0.000000 0.000000 -54.937957 -45.760027 -97.271545 0.000003 -55.535998 0.000012 0.000000 0.000000 0.000000 6.345209 2.646780 -10.664560 -0.134093 -4.148858 0.057121 0.000000 0.000000 0.000000 13.311145 62.319971 3.667502 0.000048 69.803741 -0.000028 0.000000 0.000000 0.000000 
1.253213 28.958715 -0.736074 0.000000 0.000000 0.000000 20.728743 -5.105925 -24.520564 -90.287239 -16.080750 23.069845 86.917661 -7.521740 11.936194 -19.529251 -0.166904 -7.714050 -0.000100 0.000002 -0.000004 0.000000 0.000000 0.000000 20.728743 -5.105925 -24.520564 -14.376283 -24.465386 16.126230 19.293287 -10.955401 -1.007647 -12.164437 -8.790651 13.697663 -0.046941 0.000008 -0.000001 0.000000 0.000000 0.000000 20.728743 -5.105925 -24.520564 9.894098 0.591398 -17.338691 6.617692 2.636584 -10.376593 0.000000 0.000000 0.000000 0.000000 0.000000 0.000000 6.436656 2.598914 -10.496851 2.850636 4.337952 -2.563697 -3.586367 19.274374 -0.580099 0.000000 0.000000 0.000000 6.436656 2.598914 -10.496851 0.446426 -1.456526 15.488632 0.000000 0.000000 0.000000 -53.560930 -46.487401 -96.369441 0.000023 -55.412054 0.000011 0.000000 0.000000 0.000000 6.436656 2.598914 -10.496851 -0.015628 -3.206070 -1.084830 0.000000 0.000000 0.000000 12.642372 63.185001 5.530739 0.000006 68.235871 0.000018 0.000000 0.000000 0.000000 
1.229216 29.037487 -0.756067 0.000000 0.000000 0.000000 20.313136 -5.979327 -23.902466 -88.904024 -15.491996 23.978115 86.907675 -7.793118 11.928785 -20.335514 0.826898 -7.729956 -0.000120 0.000004 0.000000 0.000000 0.000000 0.000000 20.313136 -5.979327 -23.902466 -15.130286 -23.935589 15.616054 19.698964 -10.966496 -0.998357 -11.997315 -8.377814 13.428960 -0.046312 -0.000012 -0.000001 0.000000 0.000000 0.000000 20.313136 -5.979327 -23.902466 10.008298 0.478292 -17.105632 6.741451 2.549387 -10.177095 0.000000 0.000000 0.000000 0.000000 0.000000 0.000000 6.570274 2.523461 -10.293934 4.179528 4.401187 -1.970495 -1.153845 19.995013 0.596912 0.000000 0.000000 0.000000 6.570274 2.523461 -10.293934 0.228756 -0.953301 15.112429 0.000000 0.000000 0.000000 -51.984932 -47.148226 -95.169581 -0.000010 -55.744801 -0.000005 0.000000 0.000000 0.000000 6.570274 2.523461 -10.293934 0.154803 -2.111250 -2.230888 0.000000 0.000000 0.000000 11.059658 63.733506 8.184424 0.000001 67.046435 0.000026 0.000000 0.000000 0.000000 
1.202565 29.114695 -0.808231 0.000000 0.000000 0.000000 20.060595 -6.728620 -23.222631 -87.674644 -14.933539 24.439313 86.636524 -8.172817 11.932146 -20.795527 2.067879 -7.761523 -0.156839 0.000005 -0.000003 0.000000 0.000000 0.000000 20.060595 -6.728620 -23.222631 -16.287915 -23.142115 14.898050 20.429883 -11.032005 -0.741186 -11.988719 -8.323922 13.035845 -0.045698 -0.000010 0.000004 0.000000 0.000000 0.000000 20.060595 -6.728620 -23.222631 10.243206 0.358722 -16.793709 6.941141 2.461457 -9.947734 0.000000 0.000000 0.000000 0.000000 0.000000 0.000000 6.778293 2.445098 -10.063865 5.131798 4.381358 -1.289464 0.522271 20.453802 1.490872 0.000000 0.000000 0.000000 6.778293 2.445098 -10.063865 0.262472 -0.799306 15.081456 0.000000 0.000000 0.000000 -50.440957 -47.607433 -93.589465 0.000005 -56.735424 0.000017 0.000000 0.000000 0.000000 6.778293 2.445098 -10.063865 0.338234 -1.107439 -3.097117 0.000000 0.000000 0.000000 8.580120 63.577429 11.646393 -0.000050 66.579625 0.000025 0.000000 0.000000 0.000000 
1.166354 29.212744 -0.880117 0.000000 0.000000 0.000000 19.928810 -7.314012 -22.331397 -86.467210 -14.054437 24.671777 85.838471 -7.953942 11.944631 -20.965578 2.681844 -8.019124 -0.251894 0.000004 0.000005 0.000000 0.000000 0.000000 19.928810 -7.314012 -22.331397 -17.863106 -21.898963 13.814309 21.542114 -11.144395 -0.121920 -12.203246 -8.756565 12.458886 -0.044170 -0.000027 -0.000007 0.000000 0.000000 0.000000 19.928810 -7.314012 -22.331397 10.649733 0.320823 -16.455213 7.252275 2.435839 -9.733131 0.000000 0.000000 0.000000 0.000000 0.000000 0.000000 7.094044 2.427720 -9.852895 5.763424 4.232859 -0.628144 1.402112 20.308084 2.091585 0.000000 0.000000 0.000000 7.094044 2.427720 -9.852895 0.581500 -1.216055 15.437443 0.000000 0.000000 0.000000 -48.970571 -47.656194 -91.755607 -0.000015 -58.122711 -0.000012 0.000000 0.000000 0.000000 7.094044 2.427720 -9.852895 0.472223 -0.471201 -3.359973 0.000000 0.000000 0.000000 6.468843 63.061839 14.575298 0.000041 66.413631 -0.000035 0.000000 0.000000 0.000000 
1.119538 29.355232 -0.948549 0.000000 0.000000 0.000000 19.808153 -7.941604 -21.097121 -84.955956 -12.581562 24.983452 84.542763 -7.295110 11.962849 -21.113032 2.830765 -8.397701 -0.236135 0.000001 0.000002 0.000000 0.000000 0.000000 19.808153 -7.941604 -21.097121 -19.723044 -20.300309 12.393082 22.878079 -11.208234 0.674569 -12.508746 -9.407190 11.757157 -0.040562 -0.000012 0.000001 0.000000 0.000000 0.000000 19.808153 -7.941604 -21.097121 11.206072 0.428766 -16.195111 7.687051 2.512944 -9.605938 0.000000 0.000000 0.000000 0.000000 0.000000 0.000000 7.529924 2.519344 -9.731691 6.214744 4.010775 -0.204903 1.860893 19.579311 2.431872 0.000000 0.000000 0.000000 7.529924 2.519344 -9.731691 0.816146 -1.803548 15.871311 0.000000 0.000000 0.000000 -47.429756 -47.490814 -90.058790 0.000000 -59.492191 0.000021 0.000000 0.000000 0.000000 7.529924 2.519344 -9.731691 0.535598 -0.221567 -3.140274 0.000000 0.000000 0.000000 5.679393 63.003304 15.985119 -0.000009 65.816809 0.000028 0.000000 0.000000 0.000000 
1.064184 29.539316 -1.003286 0.000000 0.000000 0.000000 19.702319 -8.861898 -19.565176 -83.064232 -10.675787 25.495141 82.949806 -6.545427 11.975461 -21.414453 3.021452 -8.840593 -0.200412 -0.000003 -0.000007 0.000000 0.000000 0.000000 19.702319 -8.861898 -19.565176 -21.726941 -18.687138 10.896026 24.149346 -11.125315 1.298917 -12.664305 -9.868361 11.059510 -0.042033 0.000024 0.000001 0.000000 0.000000 0.000000 19.702319 -8.861898 -19.565176 11.780314 0.660970 -16.040028 8.152516 2.671858 -9.565670 0.000000 0.000000 0.000000 0.000000 0.000000 0.000000 7.993817 2.699422 -9.697287 6.543357 3.806470 -0.069328 2.191572 18.645967 2.623915 0.000000 0.000000 0.000000 7.993817 2.699422 -9.697287 0.637104 -1.956014 16.175469 0.000000 0.000000 0.000000 -45.831710 -47.663495 -88.928018 0.000034 -60.769457 0.000014 0.000000 0.000000 0.000000 7.993817 2.699422 -9.697287 0.538404 -0.262169 -2.759742 0.000000 0.000000 0.000000 6.425689 63.879672 15.682323 0.000024 64.441599 -0.000005 0.000000 0.000000 0.000000 
